<svg width="192" height="192" viewBox="0 0 192 192" fill="none" xmlns="http://www.w3.org/2000/svg">
  <rect width="192" height="192" rx="24" fill="#0D0D0D"/>
  <circle cx="96" cy="96" r="60" fill="#FF6B00"/>
  <path d="M96 56C74.46 56 56 74.46 56 96C56 117.54 74.46 136 96 136C117.54 136 136 117.54 136 96C136 74.46 117.54 56 96 56ZM96 66C112.02 66 126 79.98 126 96C126 112.02 112.02 126 96 126C79.98 126 66 112.02 66 96C66 79.98 79.98 66 96 66Z" fill="#0D0D0D"/>
  <text x="96" y="105" font-family="Arial, sans-serif" font-size="32" font-weight="bold" fill="#0D0D0D" text-anchor="middle">VF</text>
</svg>
